<?xml version="1.0" encoding="utf-8"?>
<!-- Generator: Adobe Illustrator 24.1.2, SVG Export Plug-In . SVG Version: 6.00 Build 0)  -->
<svg version="1.1" id="레이어_1" xmlns="http://www.w3.org/2000/svg" xmlns:xlink="http://www.w3.org/1999/xlink" x="0px"
	 y="0px" viewBox="0 0 429.3 129.9" style="enable-background:new 0 0 429.3 129.9;" xml:space="preserve">
<style type="text/css">
	.st0{fill:#C6D2DB;}
	.st1{fill:#FFFFFF;}
	.st2{fill:#EADADA;}
</style>
<g id="XMLID_5_">
	<g id="XMLID_6_">
		<path id="XMLID_7_" class="st0" d="M110.9,7.6c7.3-3.4,16.8-3.7,25.3-0.9c4.3,1.4,8.3,3.7,11.5,5.9c3.3,2.3,6.1,4.5,8.8,6.3
			c1.6,1,3.2,2,4.7,2.8c1.5,0.9,3,1.4,4.5,2.1c3.1,1.2,6.3,1.8,9.7,2.2c6.7,0.6,13.7-0.6,19.6-3.3c0.3,0.6-0.3,2.1,0.9,1.9
			c4.6-1,5.3-0.1,6,1.1c0.2,0.3-0.6,0.8-1.3,1.2c-0.7,0.3-1.3,0.6-0.6,0.7c-3.3,1.9-9.4,4.1-5.5,3.5c0.7,0.1,2.3-0.5,3.8-1.1
			c1.5-0.7,3-1.3,3.8-1.2c1.7,0.2-0.2,2.5,1.5,2.7c1.2-0.8,3.7-2.2,4.8-3.1c1.6-0.3,0.1,2.6,1.2,1.7c4.1-2.1,8.4-6.7,11.6-11.9
			c0.3,0.2,0.8,0.1,1,0.2c0.3,0.2,0.3,0.6-0.5,2c-7.7,11.8-20.5,19.3-34,21.6c-6.8,1.2-13.9,1.1-20.9-0.6c-3.5-0.9-6.9-2-10.1-3.7
			c-3.3-1.6-6.2-3.6-8.8-5.5c-5.1-3.8-9.3-7.4-13.2-9.3c-3.8-1.9-8.2-2.7-12.5-2.3c-4.3,0.4-8.3,1.8-11.8,4.4c-3.5,2.5-6.3,6-8,9.9
			c-1.6,3.5-2.2,0.5-1.7-3c-0.1,1.1-1.1,0.7-1.2,1.9c-0.9-0.3-1.9-3.3,0.7-7.7c-0.7,1-1.4,2.1-2,3.1c-0.9,0.9-0.9-0.5-1.5-0.8
			c0.6-1.2,1.4-2.2,1.1-2.4c-0.3-0.2-0.9-0.6-1.2-0.8c-0.8,1.1-2.2,3.6-2.7,4.8c0.6-1.3,1.3-2.5,1-2.6c-0.3-0.2-0.9-0.5-1.2-0.7
			c1.1-2.8,4.3-5.9,6.2-8.1l-0.7-0.7c-2.4,1.8-5,5.7-6.4,8.3c0.4-1.5,0.2-1.7-0.4-2c2.2-4.2,6.1-7,9.1-10.6c-1.3,0.9-2.4,2-3.6,3.1
			c0.5-1.7,2.6-3.7,5.2-5.3C105.6,9.8,108.6,8.6,110.9,7.6z"/>
	</g>
</g>
<g>
	<path class="st1" d="M53.9,60.1c4.2,0,7.5,0.8,9.8,2.5c2.3,1.6,3.4,3.5,3.4,5.7c0,1.3-0.5,2.4-1.5,3.3S63.5,73,62.1,73
		c-0.9,0-1.7-0.2-2.3-0.6c-0.7-0.4-1.6-1.4-2.8-3c-2.3-3.1-4.6-4.6-6.9-4.6c-1.9,0-3.7,0.7-5.2,2.2s-2.2,3.4-2.2,5.6
		c0,1.9,0.5,3.8,1.4,5.6C45,80,47.4,83,51.3,87c5.3,5.6,7.9,10.9,7.9,15.9s-2.1,9.4-6.4,13.2s-9.8,5.6-16.5,5.6
		c-5.6,0-9.8-1.1-12.6-3.4s-4.1-5.1-4.1-8.5c0-1.7,0.5-3,1.6-4.1c1-1.1,2.3-1.6,3.8-1.6c1.3,0,2.5,0.4,3.4,1.3s1.4,1.9,1.4,3.1
		c0,0.5,0,1.1-0.1,1.8c0,0.6,0,1.1,0,1.6c0,1.6,0.7,2.9,2,4s3,1.6,5.2,1.6c2.6,0,4.8-0.4,6.7-1.3s3.4-2.2,4.5-4s1.6-3.5,1.6-5.3
		c0-1.7-0.5-3.4-1.5-5.1s-3.3-4.5-6.9-8.5C36.4,87.8,34,82.5,34,77.5c0-4.6,1.9-8.7,5.6-12.2C43.3,61.8,48.1,60.1,53.9,60.1z"/>
	<path class="st1" d="M89.1,49.1l11.3-4.3l-5.1,19.9H110l-1.1,5H94.2L88,93.6c-2,7.2-3,12.1-3,14.9c0,1.3,0.3,2.2,0.8,2.8
		c0.5,0.6,1.3,0.9,2.2,0.9c1.5,0,3.7-0.9,6.8-2.6c4-2.3,7.8-5,11.4-7.9l2.7,3.3c-10.4,7.8-17.3,12.6-20.8,14.4s-6.3,2.6-8.5,2.6
		c-1.8,0-3.1-0.6-4.2-1.9c-1-1.3-1.5-3.4-1.5-6.3c0-3.4,0.9-8.6,2.7-15.6l7.2-28.3H72.3l1.3-5h11.5L89.1,49.1z"/>
	<path class="st1" d="M163.9,61.9H174l-6.7,24.9c-3.9,14.4-5.9,22.6-5.9,24.6c0,0.9,0.2,1.6,0.6,2.1c0.4,0.5,0.9,0.7,1.4,0.7
		c0.8,0,1.8-0.4,2.8-1.1c1.6-1.1,4.5-3.8,8.9-8.2l2.3,2.6c-9.5,9.9-16.5,14.9-21,14.9c-1.5,0-2.8-0.6-3.9-1.7
		c-1.1-1.2-1.6-2.8-1.6-4.9c0-2.5,0.5-5.8,1.5-9.9c-4.2,4.8-9.4,9.1-15.6,12.7c-4.1,2.4-7.7,3.6-10.7,3.6c-1.7,0-3-0.5-3.9-1.6
		s-1.4-2.8-1.4-5.2c0-1.9,0.2-3.8,0.6-6c0.6-3,2.2-9,4.7-18c3.2-11.4,4.8-18.3,4.8-20.6c0-1.3-0.5-2-1.4-2s-2,0.4-3.5,1.3
		s-4,3-7.5,6.4l-3.1-2.5c6.4-5.7,11.2-9.4,14.5-11.2c3.3-1.8,6-2.7,8.1-2.7c1.1,0,2.1,0.4,2.8,1.2s1.1,2.1,1.1,3.9
		c0,3.3-1.7,11.3-5.1,24.1c-3,11.5-4.6,18.1-4.6,19.7c0,1,0.3,1.9,1,2.6c0.6,0.7,1.3,1.1,2.1,1.1c2.7,0,6.4-2.2,11.3-6.6
		c4.9-4.4,8.1-9.4,9.6-15L163.9,61.9z"/>
	<path class="st1" d="M237.5,105.2l2,2.7c-6.4,5.4-11.1,8.9-14.2,10.7c-4.3,2.4-7.6,3.6-10.1,3.6c-1.1,0-2.1-0.3-2.8-1
		c-0.7-0.6-1.1-1.4-1.1-2.2c0-0.8,0.3-2.1,0.8-4l2.5-8.7c-5.7,6.1-10.4,10.3-14.2,12.5s-7.2,3.3-10.2,3.3c-2.5,0-4.6-1.1-6.3-3.3
		c-1.7-2.2-2.6-5.4-2.6-9.7c0-6.7,2.3-14.5,6.9-23.2c4.6-8.8,9.8-15.2,15.4-19.4c5.7-4.2,10.8-6.3,15.5-6.3c1,0,2.6,0.2,4.7,0.5
		c2.2-9.2,4.4-16,6.4-20.2s4.7-7.9,7.9-11s6.9-5.5,11.1-7.1c4.1-1.7,8-2.5,11.6-2.5c1.9,0,3.4,0.5,4.6,1.5s1.7,2.3,1.7,3.8
		s-0.5,2.7-1.6,3.6c-1,0.9-2.5,1.4-4.3,1.4c-1.2,0-3.4-0.2-6.6-0.7c-3.2-0.5-5.4-0.7-6.6-0.7c-1.7,0-3.1,0.5-4.4,1.5
		c-1.3,1-2.5,3.2-3.6,6.6c-0.8,2.1-2.5,8.9-5.2,20.4l-10.1,43c-1.2,5.1-1.8,8.4-1.8,10.1c0,1.8,0.7,2.7,2.1,2.7c0.9,0,1.8-0.3,3-0.9
		C229.8,111,232.9,108.8,237.5,105.2z M222.5,68.4c-3.8-0.9-6.5-1.3-8-1.3c-3.2,0-6.3,1.2-9.3,3.7s-6,7.3-8.8,14.5
		s-4.2,13.4-4.2,18.7c0,2.4,0.7,4.4,2,5.9s2.8,2.3,4.4,2.3c2,0,4.3-0.9,6.8-2.6c3.7-2.6,6.5-5.8,8.7-9.5c1.3-2.4,3-8.2,5.2-17.5
		L222.5,68.4z"/>
	<path class="st1" d="M249.1,76.6l-3.1-2.4c4.7-5.2,9.1-8.9,13-11.1c3.9-2.2,7.2-3.3,10-3.3c1.5,0,2.7,0.3,3.5,1s1.2,1.6,1.2,2.7
		c0,1.4-1.5,7.2-4.6,17.5c-5,16.8-7.5,27-7.5,30.4c0,0.7,0.2,1.2,0.5,1.7s0.7,0.7,1.1,0.7c1.5,0,5.4-2.9,11.7-8.8l2.8,2.7
		c-6.5,6.1-11.2,10-14.2,11.7s-5.4,2.6-7.3,2.6c-1.7,0-3-0.5-3.9-1.6c-1-1-1.5-2.5-1.5-4.3c0-5.9,3.6-20.4,10.7-43.4
		c0.3-1.1,0.5-2.1,0.5-2.9c0-0.9-0.4-1.4-1.3-1.4s-2,0.4-3.2,1.1C256,70.1,253.3,72.5,249.1,76.6z M277.1,29.5
		c1.5,0,2.7,0.5,3.6,1.5s1.4,2.2,1.4,3.7c0,2.1-0.7,3.9-2.2,5.5c-1.4,1.6-3.1,2.4-4.9,2.4c-1.4,0-2.6-0.5-3.6-1.5s-1.4-2.3-1.4-3.9
		c0-2.1,0.7-3.9,2.1-5.4C273.6,30.2,275.2,29.5,277.1,29.5z"/>
	<path class="st1" d="M317.1,60.1c4.6,0,8.5,1.8,11.6,5.5s4.6,8.8,4.6,15.4c0,10.5-3.7,20-11.1,28.3c-7.4,8.4-15.2,12.6-23.5,12.6
		c-5.1,0-9.2-1.7-12.3-5c-3.1-3.3-4.7-7.8-4.7-13.6c0-10,2.8-19.2,8.5-27.6C297.5,65.3,306.4,60.1,317.1,60.1z M311,65.4
		c-4,0-7.9,2.9-11.7,8.6c-3.8,5.8-5.7,13.7-5.7,23.9c0,6.2,1.2,11,3.5,14.6c1.7,2.6,4,3.9,6.8,3.9c4,0,7.6-2.5,10.9-7.4
		c4.2-6.4,6.3-14.3,6.3-23.8c0-7.1-1-12.2-2.9-15.2C316.3,66.9,313.9,65.4,311,65.4z"/>
</g>
<g>
	<path class="st2" d="M317.3,38.2l0.6,0.8c-1.3,1.5-2.7,2.7-4.1,3.5c-1,0.6-1.7,0.9-2.4,0.9c-0.5,0-0.9-0.2-1.2-0.6
		c-0.3-0.4-0.5-1-0.5-1.9c0-0.6,0.1-1.4,0.4-2.5c0.2-1.1,0.9-3.5,2-7.2c0.5-1.8,0.7-2.9,0.7-3.2c0-0.5-0.2-0.7-0.7-0.7
		c-0.6,0-1.4,0.3-2.3,0.9c-1.3,0.8-2.4,1.9-3.4,3.2c-0.6,0.8-1.1,2.1-1.5,3.7l-1.7,7.6H300c0.7-2.5,1.2-4.6,1.6-6.2l3.2-14
		c0.6-2.6,1.3-4.6,2.3-6s2.2-2.5,3.7-3.3s3-1.2,4.5-1.2c0.6,0,1.1,0.2,1.5,0.5s0.5,0.7,0.5,1.2c0,0.4-0.2,0.7-0.5,1
		c-0.4,0.3-0.8,0.5-1.5,0.5c-0.3,0-0.8,0-1.4-0.1c-1.3-0.2-2.1-0.3-2.6-0.3c-0.7,0-1.2,0.3-1.6,0.8c-0.4,0.5-0.9,1.8-1.3,3.8
		L306,30.2c1.7-1.8,3.6-3.3,5.6-4.6c1.2-0.7,2.2-1.1,2.9-1.1c0.6,0,1,0.2,1.3,0.5s0.5,0.8,0.5,1.4c0,0.5-0.1,1-0.2,1.5
		c-0.2,0.9-0.6,2.4-1.3,4.7c-0.9,3.1-1.5,5-1.7,5.8s-0.3,1.4-0.3,2c0,0.2,0,0.4,0.1,0.5s0.2,0.2,0.4,0.2c0.3,0,1-0.4,2-1.2
		C315.9,39.3,316.6,38.8,317.3,38.2z"/>
	<path class="st2" d="M330.9,37.3l0.7,1c-3.6,3.4-6.6,5.1-9.1,5.1c-1,0-1.8-0.3-2.4-1c-0.5-0.7-0.8-1.8-0.8-3.4
		c0-3.1,0.9-6.2,2.8-9.3c2.1-3.5,4.7-5.2,7.6-5.2c1,0,1.8,0.3,2.4,0.8c0.5,0.5,0.8,1.2,0.8,2.1s-0.3,1.9-1,2.8s-1.8,1.9-3.5,2.9
		c-0.8,0.5-2.6,1.3-5.4,2.6c-0.1,0.8-0.2,1.5-0.2,2.2c0,1,0.2,1.7,0.5,2.2c0.3,0.4,0.8,0.6,1.4,0.6s1.2-0.2,2-0.5
		C327.6,39.6,329,38.7,330.9,37.3z M323.2,34.2c2.3-1,4.1-2.2,5.3-3.4c0.8-0.8,1.2-1.7,1.2-2.5c0-0.6-0.2-1.1-0.5-1.5
		s-0.8-0.6-1.3-0.6s-1.1,0.2-1.6,0.6c-0.7,0.5-1.3,1.4-1.7,2.4C324,30.9,323.5,32.5,323.2,34.2z"/>
	<path class="st2" d="M346,37.3l0.7,1c-3.6,3.4-6.6,5.1-9.1,5.1c-1,0-1.8-0.3-2.4-1c-0.5-0.7-0.8-1.8-0.8-3.4c0-3.1,0.9-6.2,2.8-9.3
		c2.1-3.5,4.7-5.2,7.6-5.2c1,0,1.8,0.3,2.4,0.8c0.5,0.5,0.8,1.2,0.8,2.1s-0.3,1.9-1,2.8s-1.8,1.9-3.5,2.9c-0.8,0.5-2.6,1.3-5.4,2.6
		c-0.1,0.8-0.2,1.5-0.2,2.2c0,1,0.2,1.7,0.5,2.2c0.3,0.4,0.8,0.6,1.4,0.6s1.2-0.2,2-0.5C342.8,39.6,344.2,38.7,346,37.3z
		 M338.4,34.2c2.3-1,4.1-2.2,5.3-3.4c0.8-0.8,1.2-1.7,1.2-2.5c0-0.6-0.2-1.1-0.5-1.5s-0.8-0.6-1.3-0.6s-1.1,0.2-1.6,0.6
		c-0.7,0.5-1.3,1.4-1.7,2.4C339.2,30.9,338.7,32.5,338.4,34.2z"/>
	<path class="st2" d="M350.6,29.7l-0.8-0.9c1.2-1.3,2.6-2.4,4-3.2s2.5-1.2,3.3-1.2c0.3,0,0.6,0.1,0.8,0.3c0.2,0.2,0.3,0.4,0.3,0.8
		s-0.2,1.4-0.7,3.1l-3.8,13.7c-1.3,4.7-2.7,7.8-4.2,9.5s-3.3,2.5-5.4,2.5c-1,0-1.8-0.2-2.3-0.6c-0.5-0.4-0.8-0.8-0.8-1.3
		c0-0.3,0.1-0.6,0.4-0.9c0.3-0.2,0.6-0.4,0.9-0.4c0.4,0,1,0.2,1.7,0.6c0.9,0.4,1.5,0.7,2,0.7c0.8,0,1.4-0.4,1.9-1.1
		c0.5-0.7,1.2-3,2.2-6.9c1-4,1.8-7.2,2.5-9.7l1.5-5.5c0.3-0.9,0.4-1.4,0.4-1.7c0-0.1,0-0.2-0.1-0.3c-0.1-0.1-0.2-0.1-0.3-0.1
		C353.6,27,352.4,27.9,350.6,29.7z M359.3,15.1c0.4,0,0.8,0.1,1.1,0.4c0.3,0.3,0.4,0.7,0.4,1.1c0,0.6-0.2,1.2-0.7,1.7
		c-0.4,0.5-0.9,0.7-1.5,0.7c-0.5,0-0.8-0.2-1.1-0.5c-0.3-0.3-0.4-0.7-0.4-1.2c0-0.7,0.2-1.2,0.6-1.7
		C358.2,15.3,358.7,15.1,359.3,15.1z"/>
	<path class="st2" d="M374.3,25h3.1l-2,7.6c-1.2,4.4-1.8,6.9-1.8,7.5c0,0.3,0.1,0.5,0.2,0.6s0.3,0.2,0.4,0.2c0.2,0,0.5-0.1,0.9-0.3
		c0.5-0.3,1.4-1.2,2.7-2.5l0.7,0.8c-2.9,3-5.1,4.6-6.4,4.6c-0.5,0-0.9-0.2-1.2-0.5c-0.3-0.4-0.5-0.9-0.5-1.5c0-0.8,0.2-1.8,0.5-3
		c-1.3,1.5-2.9,2.8-4.8,3.9c-1.3,0.7-2.4,1.1-3.3,1.1c-0.5,0-0.9-0.2-1.2-0.5s-0.4-0.9-0.4-1.6c0-0.6,0.1-1.2,0.2-1.8
		c0.2-0.9,0.7-2.8,1.4-5.5c1-3.5,1.5-5.6,1.5-6.3c0-0.4-0.1-0.6-0.4-0.6s-0.6,0.1-1.1,0.4s-1.2,0.9-2.3,1.9l-1-0.8
		c1.9-1.7,3.4-2.9,4.5-3.4s1.8-0.8,2.5-0.8c0.3,0,0.6,0.1,0.8,0.4s0.3,0.7,0.3,1.2c0,1-0.5,3.5-1.6,7.4c-0.9,3.5-1.4,5.5-1.4,6
		c0,0.3,0.1,0.6,0.3,0.8c0.2,0.2,0.4,0.3,0.6,0.3c0.8,0,2-0.7,3.5-2s2.5-2.9,2.9-4.6L374.3,25z"/>
	<path class="st2" d="M380.8,29.6l-0.7-0.8c1.9-1.8,3.3-3,4.4-3.5c1.1-0.6,2-0.9,2.8-0.9c0.3,0,0.5,0.1,0.7,0.2s0.3,0.3,0.3,0.5
		c0,0.1,0,0.4-0.1,0.7l-1,4.4c1.5-1.6,3.3-3.2,5.6-4.6c1.2-0.7,2.2-1.1,2.9-1.1c0.6,0,1,0.2,1.3,0.5c0.3,0.4,0.5,0.9,0.5,1.6
		c0,0.5-0.1,1-0.2,1.5c-0.2,0.9-0.8,3-1.8,6.2c-0.9,3-1.4,4.9-1.4,5.9c0,0.3,0,0.5,0.1,0.7c0.1,0.1,0.2,0.2,0.4,0.2
		c0.4,0,1.1-0.4,2-1.2c0.6-0.6,1.3-1.1,1.9-1.6L399,39c-1.3,1.5-2.7,2.7-4.2,3.6c-0.9,0.6-1.7,0.9-2.3,0.9c-0.6,0-1-0.2-1.3-0.6
		c-0.3-0.4-0.5-1-0.5-1.9c0-1.3,0.8-4.5,2.4-9.6c0.5-1.8,0.7-2.9,0.7-3.2c0-0.4-0.3-0.7-0.8-0.7c-0.6,0-1.3,0.3-2.2,0.9
		c-1.4,0.9-2.5,2-3.4,3.2c-0.6,0.8-1.1,2-1.5,3.8l-1.8,7.6h-3.2c0.6-2.2,1.1-4.3,1.6-6.3l1.9-8.3c0.1-0.3,0.1-0.6,0.1-0.7
		c0-0.4-0.1-0.6-0.4-0.6c-0.2,0-0.6,0.2-1,0.5C382.4,28,381.5,28.7,380.8,29.6z"/>
	<path class="st2" d="M415.3,24.3l1.8-0.4c-1.1,3.4-2,6.8-2.9,10.2c-0.6,2.4-1.1,4.5-1.3,6.1c-0.1,0.8-0.2,1.8-0.2,3.1
		c0,2.1-0.3,3.8-0.7,5.1c-0.6,1.8-1.7,3.2-3.4,4.3c-1.7,1.1-3.6,1.6-5.9,1.6c-2,0-3.5-0.5-4.6-1.4s-1.7-2-1.7-3.2s0.5-2.3,1.4-3.3
		c0.7-0.8,2.1-1.7,4.2-2.8c1.1-0.6,2.1-1.1,3-1.7c-1.1,0.6-1.9,0.8-2.5,0.8c-0.5,0-1-0.3-1.4-0.8s-0.6-1.2-0.6-2
		c0-2.7,0.8-5.3,2.4-8c1.6-2.6,3.5-4.6,5.7-5.9c1.4-0.8,3.1-1.2,5.2-1.2c0.4,0,0.9,0,1.5,0V24.3z M409.9,39.4
		c-1,0.9-2.9,2.3-5.7,4.2c-2.5,1.7-4,2.9-4.6,3.6c-0.6,0.8-0.9,1.6-0.9,2.4c0,0.8,0.4,1.6,1.1,2.2c0.7,0.7,1.6,1,2.7,1
		c1,0,1.9-0.2,2.9-0.7c0.9-0.5,1.7-1.2,2.4-2.1c0.7-0.9,1.2-2,1.4-3.1c0.3-1.2,0.4-2.7,0.4-4.6C409.7,41.9,409.8,40.9,409.9,39.4z
		 M412.8,27.5c-0.7-0.1-1.3-0.2-1.8-0.2c-1.4,0-2.6,0.4-3.5,1.1c-1,0.7-1.8,1.9-2.5,3.7c-1,2.4-1.5,4.5-1.5,6.1
		c0,0.7,0.2,1.3,0.6,1.7c0.4,0.5,0.8,0.7,1.3,0.7c0.6,0,1.3-0.3,2.2-0.8c0.9-0.6,1.6-1.3,2.1-2.1s1.1-2.3,1.7-4.4L412.8,27.5z"/>
</g>
</svg>
